<svg xmlns="http://www.w3.org/2000/svg" xmlns:xlink="http://www.w3.org/1999/xlink" width="500" zoomAndPan="magnify" viewBox="0 0 375 149.999998" height="200" preserveAspectRatio="xMidYMid meet" version="1.0"><defs><g/><clipPath id="id1"><path d="M 12 51.757812 L 110.585938 51.757812 L 110.585938 130.265625 L 12 130.265625 Z M 12 51.757812 " clip-rule="nonzero"/></clipPath><clipPath id="id2"><path d="M 6.457031 52 L 105 52 L 105 129 L 6.457031 129 Z M 6.457031 52 " clip-rule="nonzero"/></clipPath><clipPath id="id3"><path d="M 6.457031 51.757812 L 107 51.757812 L 107 130 L 6.457031 130 Z M 6.457031 51.757812 " clip-rule="nonzero"/></clipPath><clipPath id="id4"><path d="M 79.527344 22.820312 L 179 22.820312 L 179 101.332031 L 79.527344 101.332031 Z M 79.527344 22.820312 " clip-rule="nonzero"/></clipPath><clipPath id="id5"><path d="M 85 23 L 183.644531 23 L 183.644531 100 L 85 100 Z M 85 23 " clip-rule="nonzero"/></clipPath><clipPath id="id6"><path d="M 83 22.820312 L 183.644531 22.820312 L 183.644531 101 L 83 101 Z M 83 22.820312 " clip-rule="nonzero"/></clipPath><clipPath id="id7"><path d="M 33.332031 79.605469 L 44.902344 79.605469 L 44.902344 91.175781 L 33.332031 91.175781 Z M 33.332031 79.605469 " clip-rule="nonzero"/></clipPath><clipPath id="id8"><path d="M 50.925781 79.605469 L 62.496094 79.605469 L 62.496094 91.175781 L 50.925781 91.175781 Z M 50.925781 79.605469 " clip-rule="nonzero"/></clipPath><clipPath id="id9"><path d="M 68.109375 79.605469 L 79.679688 79.605469 L 79.679688 91.175781 L 68.109375 91.175781 Z M 68.109375 79.605469 " clip-rule="nonzero"/></clipPath><clipPath id="id10"><path d="M 112.535156 50.667969 L 124.105469 50.667969 L 124.105469 62.238281 L 112.535156 62.238281 Z M 112.535156 50.667969 " clip-rule="nonzero"/></clipPath><clipPath id="id11"><path d="M 130.128906 50.667969 L 141.699219 50.667969 L 141.699219 62.238281 L 130.128906 62.238281 Z M 130.128906 50.667969 " clip-rule="nonzero"/></clipPath><clipPath id="id12"><path d="M 147.3125 50.667969 L 158.882812 50.667969 L 158.882812 62.238281 L 147.3125 62.238281 Z M 147.3125 50.667969 " clip-rule="nonzero"/></clipPath></defs><g clip-path="url(#id1)"><path fill="#272f47" d="M 110.554688 84.238281 C 110.554688 66.308594 88.511719 51.757812 61.328125 51.757812 C 34.144531 51.757812 12.097656 66.308594 12.097656 84.238281 C 12.097656 102.164062 34.144531 116.71875 61.328125 116.71875 C 68.253906 116.71875 71.820312 121.300781 71.820312 121.300781 L 76.011719 124.421875 C 85.09375 129.683594 89.351562 130.265625 89.351562 130.265625 L 86.4375 112.160156 C 100.875 106.519531 110.554688 96.128906 110.554688 84.238281 " fill-opacity="1" fill-rule="nonzero"/></g><g clip-path="url(#id2)"><path fill="#2080e4" d="M 104.957031 84.914062 C 104.957031 66.988281 82.910156 52.433594 55.726562 52.433594 C 28.542969 52.433594 6.5 66.972656 6.5 84.914062 C 6.5 102.84375 28.542969 117.394531 55.726562 117.394531 C 59.144531 117.394531 62.507812 117.164062 65.734375 116.71875 C 74.777344 124.148438 86.03125 128.351562 86.03125 128.351562 L 82.015625 112.378906 L 81.988281 112.378906 C 95.804688 106.628906 104.957031 96.46875 104.957031 84.914062 " fill-opacity="1" fill-rule="nonzero"/></g><g clip-path="url(#id3)"><path fill="#272f47" d="M 102.328125 71.894531 C 99.804688 67.949219 96.183594 64.421875 91.574219 61.386719 C 82.167969 55.1875 69.679688 51.757812 56.378906 51.757812 C 43.105469 51.757812 30.621094 55.175781 21.210938 61.386719 C 16.601562 64.421875 12.992188 67.976562 10.457031 71.894531 C 7.828125 76.019531 6.488281 80.398438 6.488281 84.914062 C 6.488281 89.429688 7.828125 93.796875 10.457031 97.921875 C 12.980469 101.855469 16.601562 105.394531 21.210938 108.429688 C 30.621094 114.628906 43.105469 118.058594 56.378906 118.058594 C 59.441406 118.058594 62.453125 117.871094 65.382812 117.53125 C 68.527344 120.082031 71.835938 122.183594 74.613281 123.78125 C 80.5 127.144531 85.445312 128.992188 85.488281 129.003906 C 85.570312 129.03125 85.636719 129.046875 85.71875 129.046875 C 85.894531 129.046875 86.03125 128.976562 86.164062 128.867188 C 86.355469 128.691406 86.421875 128.449219 86.382812 128.203125 L 82.601562 113.125 C 85.8125 111.808594 88.796875 110.234375 91.546875 108.429688 C 96.15625 105.394531 99.765625 101.867188 102.300781 97.921875 C 104.929688 93.796875 106.273438 89.417969 106.273438 84.914062 C 106.273438 80.414062 104.957031 76.003906 102.328125 71.894531 M 82.167969 111.847656 L 81.082031 112.269531 L 81.597656 114.113281 L 84.78125 127.242188 C 82.992188 126.496094 79.386719 124.910156 75.292969 122.589844 C 72.851562 121.191406 70.003906 119.402344 67.226562 117.261719 C 66.667969 116.839844 65.773438 116.105469 65.773438 116.105469 C 64.730469 116.1875 64.824219 116.1875 63.972656 116.324219 C 61.492188 116.582031 58.953125 116.703125 56.367188 116.703125 C 29.589844 116.703125 7.789062 102.421875 7.789062 84.875 C 7.789062 67.324219 29.574219 53.074219 56.367188 53.074219 C 83.15625 53.074219 104.941406 67.351562 104.941406 84.902344 C 104.957031 96.238281 95.847656 106.21875 82.167969 111.847656 " fill-opacity="1" fill-rule="nonzero"/></g><g clip-path="url(#id4)"><path fill="#272f47" d="M 79.558594 55.300781 C 79.558594 37.375 101.601562 22.820312 128.785156 22.820312 C 155.96875 22.820312 178.015625 37.375 178.015625 55.300781 C 178.015625 73.230469 155.96875 87.78125 128.785156 87.78125 C 121.855469 87.78125 118.292969 92.367188 118.292969 92.367188 L 114.101562 95.484375 C 105.019531 100.746094 100.761719 101.332031 100.761719 101.332031 L 103.675781 83.226562 C 89.238281 77.582031 79.558594 67.195312 79.558594 55.300781 " fill-opacity="1" fill-rule="nonzero"/></g><g clip-path="url(#id5)"><path fill="#eee5cd" d="M 85.15625 55.980469 C 85.15625 38.050781 107.203125 23.5 134.386719 23.5 C 161.566406 23.5 183.613281 38.039062 183.613281 55.980469 C 183.613281 73.910156 161.566406 88.460938 134.386719 88.460938 C 130.96875 88.460938 127.605469 88.230469 124.378906 87.78125 C 115.335938 95.214844 104.082031 99.417969 104.082031 99.417969 L 108.097656 83.441406 L 108.125 83.441406 C 94.308594 77.691406 85.15625 67.535156 85.15625 55.980469 " fill-opacity="1" fill-rule="nonzero"/></g><g clip-path="url(#id6)"><path fill="#272f47" d="M 87.785156 42.960938 C 90.308594 39.015625 93.929688 35.488281 98.539062 32.449219 C 107.945312 26.253906 120.433594 22.820312 133.734375 22.820312 C 147.007812 22.820312 159.492188 26.238281 168.902344 32.449219 C 173.511719 35.488281 177.117188 39.042969 179.65625 42.960938 C 182.285156 47.082031 183.625 51.464844 183.625 55.980469 C 183.625 60.496094 182.285156 64.863281 179.65625 68.984375 C 177.132812 72.917969 173.511719 76.457031 168.902344 79.496094 C 159.492188 85.695312 147.007812 89.125 133.734375 89.125 C 130.671875 89.125 127.660156 88.933594 124.730469 88.597656 C 121.585938 91.144531 118.277344 93.246094 115.5 94.847656 C 109.613281 98.210938 104.667969 100.054688 104.625 100.070312 C 104.542969 100.097656 104.476562 100.109375 104.394531 100.109375 C 104.21875 100.109375 104.082031 100.042969 103.949219 99.933594 C 103.757812 99.757812 103.691406 99.511719 103.730469 99.269531 L 107.511719 84.1875 C 104.300781 82.871094 101.316406 81.300781 98.566406 79.496094 C 93.957031 76.457031 90.347656 72.933594 87.8125 68.984375 C 85.183594 64.863281 83.839844 60.480469 83.839844 55.980469 C 83.839844 51.476562 85.15625 47.070312 87.785156 42.960938 M 107.945312 82.914062 L 109.03125 83.332031 L 108.515625 85.179688 L 105.332031 98.304688 C 107.121094 97.558594 110.726562 95.972656 114.820312 93.652344 C 117.261719 92.257812 120.109375 90.46875 122.886719 88.324219 C 123.445312 87.902344 124.339844 87.171875 124.339844 87.171875 C 125.382812 87.253906 125.289062 87.253906 126.140625 87.390625 C 128.621094 87.644531 131.15625 87.769531 133.746094 87.769531 C 160.523438 87.769531 182.324219 73.488281 182.324219 55.9375 C 182.324219 38.390625 160.539062 24.136719 133.746094 24.136719 C 106.957031 24.136719 85.171875 38.417969 85.171875 55.964844 C 85.15625 67.304688 94.265625 77.285156 107.945312 82.914062 " fill-opacity="1" fill-rule="nonzero"/></g><g clip-path="url(#id7)"><path fill="#272f47" d="M 39.117188 79.605469 C 35.921875 79.605469 33.332031 82.195312 33.332031 85.390625 C 33.332031 88.585938 35.921875 91.175781 39.117188 91.175781 C 42.3125 91.175781 44.902344 88.585938 44.902344 85.390625 C 44.902344 82.195312 42.3125 79.605469 39.117188 79.605469 " fill-opacity="1" fill-rule="nonzero"/></g><g clip-path="url(#id8)"><path fill="#272f47" d="M 56.710938 79.605469 C 53.515625 79.605469 50.925781 82.195312 50.925781 85.390625 C 50.925781 88.585938 53.515625 91.175781 56.710938 91.175781 C 59.90625 91.175781 62.496094 88.585938 62.496094 85.390625 C 62.496094 82.195312 59.90625 79.605469 56.710938 79.605469 " fill-opacity="1" fill-rule="nonzero"/></g><g clip-path="url(#id9)"><path fill="#272f47" d="M 73.894531 79.605469 C 70.699219 79.605469 68.109375 82.195312 68.109375 85.390625 C 68.109375 88.585938 70.699219 91.175781 73.894531 91.175781 C 77.089844 91.175781 79.679688 88.585938 79.679688 85.390625 C 79.679688 82.195312 77.089844 79.605469 73.894531 79.605469 " fill-opacity="1" fill-rule="nonzero"/></g><g clip-path="url(#id10)"><path fill="#272f47" d="M 118.320312 50.667969 C 115.125 50.667969 112.535156 53.257812 112.535156 56.453125 C 112.535156 59.648438 115.125 62.238281 118.320312 62.238281 C 121.515625 62.238281 124.105469 59.648438 124.105469 56.453125 C 124.105469 53.257812 121.515625 50.667969 118.320312 50.667969 " fill-opacity="1" fill-rule="nonzero"/></g><g clip-path="url(#id11)"><path fill="#272f47" d="M 135.914062 50.667969 C 132.71875 50.667969 130.128906 53.257812 130.128906 56.453125 C 130.128906 59.648438 132.71875 62.238281 135.914062 62.238281 C 139.109375 62.238281 141.699219 59.648438 141.699219 56.453125 C 141.699219 53.257812 139.109375 50.667969 135.914062 50.667969 " fill-opacity="1" fill-rule="nonzero"/></g><g clip-path="url(#id12)"><path fill="#272f47" d="M 153.097656 50.667969 C 149.902344 50.667969 147.3125 53.257812 147.3125 56.453125 C 147.3125 59.648438 149.902344 62.238281 153.097656 62.238281 C 156.292969 62.238281 158.882812 59.648438 158.882812 56.453125 C 158.882812 53.257812 156.292969 50.667969 153.097656 50.667969 " fill-opacity="1" fill-rule="nonzero"/></g><g fill="#272f47" fill-opacity="1"><g transform="translate(202.400703, 63.263962)"><g><path d="M 26.09375 -3.265625 C 26.238281 -2.898438 26.3125 -2.566406 26.3125 -2.265625 C 26.3125 -1.535156 26.070312 -0.941406 25.59375 -0.484375 C 25.125 -0.0234375 24.582031 0.203125 23.96875 0.203125 C 23.46875 0.203125 23.015625 0.0507812 22.609375 -0.25 C 22.203125 -0.5625 21.890625 -0.976562 21.671875 -1.5 L 19.484375 -6.5625 L 7.03125 -6.5625 L 4.859375 -1.46875 C 4.660156 -0.9375 4.359375 -0.523438 3.953125 -0.234375 C 3.546875 0.0546875 3.109375 0.203125 2.640625 0.203125 C 1.910156 0.203125 1.359375 0.0078125 0.984375 -0.375 C 0.609375 -0.769531 0.421875 -1.300781 0.421875 -1.96875 C 0.421875 -2.21875 0.460938 -2.484375 0.546875 -2.765625 L 10.953125 -27.78125 C 11.179688 -28.332031 11.515625 -28.757812 11.953125 -29.0625 C 12.398438 -29.375 12.90625 -29.503906 13.46875 -29.453125 C 13.96875 -29.453125 14.429688 -29.300781 14.859375 -29 C 15.296875 -28.707031 15.613281 -28.300781 15.8125 -27.78125 Z M 9.078125 -11.375 L 17.4375 -11.375 L 13.21875 -21.171875 Z M 9.078125 -11.375 "/></g></g></g><g fill="#272f47" fill-opacity="1"><g transform="translate(229.126234, 63.263962)"><g><path d="M 14.6875 -22.796875 C 17.53125 -22.796875 19.492188 -21.953125 20.578125 -20.265625 C 21.660156 -18.578125 22.203125 -16.242188 22.203125 -13.265625 L 22.203125 -2.546875 C 22.203125 -1.828125 21.960938 -1.222656 21.484375 -0.734375 C 21.015625 -0.242188 20.421875 0 19.703125 0 C 18.972656 0 18.367188 -0.242188 17.890625 -0.734375 C 17.421875 -1.222656 17.1875 -1.828125 17.1875 -2.546875 L 17.1875 -13.265625 C 17.1875 -14.796875 16.863281 -16 16.21875 -16.875 C 15.582031 -17.75 14.484375 -18.1875 12.921875 -18.1875 C 11.304688 -18.1875 10.035156 -17.71875 9.109375 -16.78125 C 8.191406 -15.851562 7.734375 -14.679688 7.734375 -13.265625 L 7.734375 -2.546875 C 7.734375 -1.828125 7.492188 -1.222656 7.015625 -0.734375 C 6.546875 -0.242188 5.953125 0 5.234375 0 C 4.503906 0 3.898438 -0.242188 3.421875 -0.734375 C 2.953125 -1.222656 2.71875 -1.828125 2.71875 -2.546875 L 2.71875 -19.828125 C 2.71875 -20.554688 2.953125 -21.160156 3.421875 -21.640625 C 3.898438 -22.128906 4.503906 -22.375 5.234375 -22.375 C 5.953125 -22.375 6.546875 -22.128906 7.015625 -21.640625 C 7.492188 -21.160156 7.734375 -20.554688 7.734375 -19.828125 L 7.734375 -19.109375 C 8.492188 -20.117188 9.476562 -20.984375 10.6875 -21.703125 C 11.894531 -22.429688 13.226562 -22.796875 14.6875 -22.796875 Z M 14.6875 -22.796875 "/></g></g></g><g fill="#272f47" fill-opacity="1"><g transform="translate(254.053339, 63.263962)"><g><path d="M 24.21875 -11.171875 C 24.21875 -8.941406 23.710938 -6.941406 22.703125 -5.171875 C 21.703125 -3.398438 20.332031 -2.023438 18.59375 -1.046875 C 16.851562 -0.0664062 14.9375 0.421875 12.84375 0.421875 C 10.71875 0.421875 8.789062 -0.0664062 7.0625 -1.046875 C 5.332031 -2.023438 3.96875 -3.398438 2.96875 -5.171875 C 1.96875 -6.941406 1.46875 -8.941406 1.46875 -11.171875 C 1.46875 -13.398438 1.96875 -15.398438 2.96875 -17.171875 C 3.96875 -18.941406 5.332031 -20.320312 7.0625 -21.3125 C 8.789062 -22.300781 10.71875 -22.796875 12.84375 -22.796875 C 14.9375 -22.796875 16.851562 -22.300781 18.59375 -21.3125 C 20.332031 -20.320312 21.703125 -18.941406 22.703125 -17.171875 C 23.710938 -15.398438 24.21875 -13.398438 24.21875 -11.171875 Z M 19.203125 -11.171875 C 19.203125 -12.535156 18.914062 -13.753906 18.34375 -14.828125 C 17.769531 -15.898438 17 -16.726562 16.03125 -17.3125 C 15.070312 -17.894531 14.007812 -18.1875 12.84375 -18.1875 C 11.664062 -18.1875 10.597656 -17.894531 9.640625 -17.3125 C 8.679688 -16.726562 7.914062 -15.898438 7.34375 -14.828125 C 6.769531 -13.753906 6.484375 -12.535156 6.484375 -11.171875 C 6.484375 -9.804688 6.769531 -8.59375 7.34375 -7.53125 C 7.914062 -6.46875 8.679688 -5.644531 9.640625 -5.0625 C 10.597656 -4.476562 11.664062 -4.1875 12.84375 -4.1875 C 14.007812 -4.1875 15.070312 -4.476562 16.03125 -5.0625 C 17 -5.644531 17.769531 -6.46875 18.34375 -7.53125 C 18.914062 -8.59375 19.203125 -9.804688 19.203125 -11.171875 Z M 19.203125 -11.171875 "/></g></g></g><g fill="#272f47" fill-opacity="1"><g transform="translate(279.733274, 63.263962)"><g><path d="M 14.6875 -22.796875 C 17.53125 -22.796875 19.492188 -21.953125 20.578125 -20.265625 C 21.660156 -18.578125 22.203125 -16.242188 22.203125 -13.265625 L 22.203125 -2.546875 C 22.203125 -1.828125 21.960938 -1.222656 21.484375 -0.734375 C 21.015625 -0.242188 20.421875 0 19.703125 0 C 18.972656 0 18.367188 -0.242188 17.890625 -0.734375 C 17.421875 -1.222656 17.1875 -1.828125 17.1875 -2.546875 L 17.1875 -13.265625 C 17.1875 -14.796875 16.863281 -16 16.21875 -16.875 C 15.582031 -17.75 14.484375 -18.1875 12.921875 -18.1875 C 11.304688 -18.1875 10.035156 -17.71875 9.109375 -16.78125 C 8.191406 -15.851562 7.734375 -14.679688 7.734375 -13.265625 L 7.734375 -2.546875 C 7.734375 -1.828125 7.492188 -1.222656 7.015625 -0.734375 C 6.546875 -0.242188 5.953125 0 5.234375 0 C 4.503906 0 3.898438 -0.242188 3.421875 -0.734375 C 2.953125 -1.222656 2.71875 -1.828125 2.71875 -2.546875 L 2.71875 -19.828125 C 2.71875 -20.554688 2.953125 -21.160156 3.421875 -21.640625 C 3.898438 -22.128906 4.503906 -22.375 5.234375 -22.375 C 5.953125 -22.375 6.546875 -22.128906 7.015625 -21.640625 C 7.492188 -21.160156 7.734375 -20.554688 7.734375 -19.828125 L 7.734375 -19.109375 C 8.492188 -20.117188 9.476562 -20.984375 10.6875 -21.703125 C 11.894531 -22.429688 13.226562 -22.796875 14.6875 -22.796875 Z M 14.6875 -22.796875 "/></g></g></g><g fill="#272f47" fill-opacity="1"><g transform="translate(304.66038, 63.263962)"><g><path d="M 19.328125 -22.375 C 20.046875 -22.375 20.640625 -22.128906 21.109375 -21.640625 C 21.585938 -21.160156 21.828125 -20.554688 21.828125 -19.828125 L 21.828125 -2.046875 C 21.828125 1.578125 20.851562 4.21875 18.90625 5.875 C 16.957031 7.53125 14.347656 8.359375 11.078125 8.359375 C 10.128906 8.359375 9.160156 8.28125 8.171875 8.125 C 7.179688 7.976562 6.378906 7.78125 5.765625 7.53125 C 4.398438 6.945312 3.71875 6.140625 3.71875 5.109375 C 3.71875 4.910156 3.757812 4.6875 3.84375 4.4375 C 4.007812 3.820312 4.296875 3.351562 4.703125 3.03125 C 5.109375 2.707031 5.546875 2.546875 6.015625 2.546875 C 6.296875 2.546875 6.5625 2.585938 6.8125 2.671875 C 7.007812 2.753906 7.351562 2.894531 7.84375 3.09375 C 8.332031 3.289062 8.847656 3.453125 9.390625 3.578125 C 9.929688 3.703125 10.492188 3.765625 11.078125 3.765625 C 13.054688 3.765625 14.515625 3.335938 15.453125 2.484375 C 16.390625 1.640625 16.859375 0.1875 16.859375 -1.875 L 16.859375 -2.296875 C 15.410156 -0.484375 13.148438 0.421875 10.078125 0.421875 C 8.628906 0.421875 7.347656 0.0820312 6.234375 -0.59375 C 5.117188 -1.28125 4.253906 -2.226562 3.640625 -3.4375 C 3.023438 -4.65625 2.71875 -6.046875 2.71875 -7.609375 L 2.71875 -19.828125 C 2.71875 -20.554688 2.953125 -21.160156 3.421875 -21.640625 C 3.898438 -22.128906 4.503906 -22.375 5.234375 -22.375 C 5.953125 -22.375 6.546875 -22.128906 7.015625 -21.640625 C 7.492188 -21.160156 7.734375 -20.554688 7.734375 -19.828125 L 7.734375 -9.125 C 7.734375 -7.363281 8.113281 -6.097656 8.875 -5.328125 C 9.644531 -4.566406 10.769531 -4.1875 12.25 -4.1875 C 13.707031 -4.1875 14.832031 -4.609375 15.625 -5.453125 C 16.414062 -6.304688 16.8125 -7.53125 16.8125 -9.125 L 16.8125 -19.828125 C 16.8125 -20.554688 17.046875 -21.160156 17.515625 -21.640625 C 17.992188 -22.128906 18.597656 -22.375 19.328125 -22.375 Z M 19.328125 -22.375 "/></g></g></g><g fill="#272f47" fill-opacity="1"><g transform="translate(329.211064, 63.263962)"><g><path d="M 28.53125 -22.796875 C 31.289062 -22.796875 33.195312 -21.953125 34.25 -20.265625 C 35.3125 -18.578125 35.84375 -16.242188 35.84375 -13.265625 L 35.84375 -2.546875 C 35.84375 -1.828125 35.601562 -1.222656 35.125 -0.734375 C 34.65625 -0.242188 34.0625 0 33.34375 0 C 32.613281 0 32.007812 -0.242188 31.53125 -0.734375 C 31.0625 -1.222656 30.828125 -1.828125 30.828125 -2.546875 L 30.828125 -13.265625 C 30.828125 -14.796875 30.523438 -16 29.921875 -16.875 C 29.328125 -17.75 28.273438 -18.1875 26.765625 -18.1875 C 25.203125 -18.1875 23.984375 -17.71875 23.109375 -16.78125 C 22.234375 -15.851562 21.796875 -14.679688 21.796875 -13.265625 L 21.796875 -2.546875 C 21.796875 -1.828125 21.554688 -1.222656 21.078125 -0.734375 C 20.609375 -0.242188 20.007812 0 19.28125 0 C 18.550781 0 17.945312 -0.242188 17.46875 -0.734375 C 17 -1.222656 16.765625 -1.828125 16.765625 -2.546875 L 16.765625 -13.265625 C 16.765625 -14.796875 16.460938 -16 15.859375 -16.875 C 15.265625 -17.75 14.21875 -18.1875 12.71875 -18.1875 C 11.15625 -18.1875 9.929688 -17.71875 9.046875 -16.78125 C 8.171875 -15.851562 7.734375 -14.679688 7.734375 -13.265625 L 7.734375 -2.546875 C 7.734375 -1.828125 7.492188 -1.222656 7.015625 -0.734375 C 6.546875 -0.242188 5.953125 0 5.234375 0 C 4.503906 0 3.898438 -0.242188 3.421875 -0.734375 C 2.953125 -1.222656 2.71875 -1.828125 2.71875 -2.546875 L 2.71875 -19.828125 C 2.71875 -20.554688 2.953125 -21.160156 3.421875 -21.640625 C 3.898438 -22.128906 4.503906 -22.375 5.234375 -22.375 C 5.953125 -22.375 6.546875 -22.128906 7.015625 -21.640625 C 7.492188 -21.160156 7.734375 -20.554688 7.734375 -19.828125 L 7.734375 -19.15625 C 8.492188 -20.15625 9.453125 -21.007812 10.609375 -21.71875 C 11.765625 -22.4375 13.050781 -22.796875 14.46875 -22.796875 C 17.988281 -22.796875 20.234375 -21.257812 21.203125 -18.1875 C 21.847656 -19.363281 22.816406 -20.425781 24.109375 -21.375 C 25.410156 -22.320312 26.882812 -22.796875 28.53125 -22.796875 Z M 28.53125 -22.796875 "/></g></g></g><g fill="#272f47" fill-opacity="1"><g transform="translate(202.400703, 121.112556)"><g><path d="M 12.546875 0.421875 C 10.535156 0.421875 8.75 0.171875 7.1875 -0.328125 C 5.632812 -0.835938 4.171875 -1.691406 2.796875 -2.890625 C 2.046875 -3.554688 1.671875 -4.296875 1.671875 -5.109375 C 1.671875 -5.742188 1.90625 -6.304688 2.375 -6.796875 C 2.851562 -7.285156 3.425781 -7.53125 4.09375 -7.53125 C 4.625 -7.53125 5.097656 -7.363281 5.515625 -7.03125 C 6.628906 -6.101562 7.71875 -5.429688 8.78125 -5.015625 C 9.84375 -4.597656 11.097656 -4.390625 12.546875 -4.390625 C 14.109375 -4.390625 15.453125 -4.738281 16.578125 -5.4375 C 17.710938 -6.132812 18.28125 -7 18.28125 -8.03125 C 18.28125 -9.28125 17.722656 -10.257812 16.609375 -10.96875 C 15.492188 -11.6875 13.722656 -12.226562 11.296875 -12.59375 C 5.191406 -13.476562 2.140625 -16.320312 2.140625 -21.125 C 2.140625 -22.882812 2.597656 -24.410156 3.515625 -25.703125 C 4.429688 -26.992188 5.679688 -27.984375 7.265625 -28.671875 C 8.859375 -29.359375 10.632812 -29.703125 12.59375 -29.703125 C 14.34375 -29.703125 15.992188 -29.4375 17.546875 -28.90625 C 19.097656 -28.375 20.390625 -27.675781 21.421875 -26.8125 C 22.222656 -26.164062 22.625 -25.425781 22.625 -24.59375 C 22.625 -23.957031 22.382812 -23.394531 21.90625 -22.90625 C 21.4375 -22.414062 20.882812 -22.171875 20.25 -22.171875 C 19.832031 -22.171875 19.453125 -22.296875 19.109375 -22.546875 C 18.390625 -23.128906 17.378906 -23.664062 16.078125 -24.15625 C 14.785156 -24.644531 13.625 -24.890625 12.59375 -24.890625 C 10.832031 -24.890625 9.46875 -24.5625 8.5 -23.90625 C 7.539062 -23.25 7.0625 -22.390625 7.0625 -21.328125 C 7.0625 -20.128906 7.554688 -19.222656 8.546875 -18.609375 C 9.535156 -17.992188 11.09375 -17.492188 13.21875 -17.109375 C 15.613281 -16.691406 17.53125 -16.15625 18.96875 -15.5 C 20.40625 -14.84375 21.484375 -13.945312 22.203125 -12.8125 C 22.929688 -11.6875 23.296875 -10.191406 23.296875 -8.328125 C 23.296875 -6.566406 22.800781 -5.023438 21.8125 -3.703125 C 20.820312 -2.378906 19.503906 -1.359375 17.859375 -0.640625 C 16.210938 0.0664062 14.441406 0.421875 12.546875 0.421875 Z M 12.546875 0.421875 "/></g></g></g><g fill="#272f47" fill-opacity="1"><g transform="translate(227.369624, 121.112556)"><g><path d="M 28.53125 -29.328125 C 29.226562 -29.328125 29.832031 -29.082031 30.34375 -28.59375 C 30.863281 -28.101562 31.125 -27.492188 31.125 -26.765625 L 31.125 -2.546875 C 31.125 -1.828125 30.882812 -1.222656 30.40625 -0.734375 C 29.9375 -0.242188 29.3125 0 28.53125 0 C 27.75 0 27.113281 -0.234375 26.625 -0.703125 C 26.132812 -1.179688 25.890625 -1.796875 25.890625 -2.546875 L 25.890625 -19.40625 L 18.984375 -8.875 C 18.710938 -8.53125 18.394531 -8.253906 18.03125 -8.046875 C 17.664062 -7.835938 17.289062 -7.75 16.90625 -7.78125 C 16.539062 -7.75 16.175781 -7.835938 15.8125 -8.046875 C 15.445312 -8.253906 15.125 -8.53125 14.84375 -8.875 L 7.953125 -19.78125 L 7.953125 -2.546875 C 7.953125 -1.796875 7.726562 -1.179688 7.28125 -0.703125 C 6.832031 -0.234375 6.242188 0 5.515625 0 C 4.816406 0 4.242188 -0.242188 3.796875 -0.734375 C 3.359375 -1.222656 3.140625 -1.828125 3.140625 -2.546875 L 3.140625 -26.765625 C 3.140625 -27.460938 3.394531 -28.0625 3.90625 -28.5625 C 4.425781 -29.070312 5.046875 -29.328125 5.765625 -29.328125 C 6.191406 -29.328125 6.613281 -29.21875 7.03125 -29 C 7.445312 -28.789062 7.765625 -28.519531 7.984375 -28.1875 L 17.109375 -14.1875 L 26.484375 -28.1875 C 26.703125 -28.519531 27 -28.789062 27.375 -29 C 27.75 -29.21875 28.132812 -29.328125 28.53125 -29.328125 Z M 28.53125 -29.328125 "/></g></g></g><g fill="#272f47" fill-opacity="1"><g transform="translate(261.623472, 121.112556)"><g><path d="M 12.546875 0.421875 C 10.535156 0.421875 8.75 0.171875 7.1875 -0.328125 C 5.632812 -0.835938 4.171875 -1.691406 2.796875 -2.890625 C 2.046875 -3.554688 1.671875 -4.296875 1.671875 -5.109375 C 1.671875 -5.742188 1.90625 -6.304688 2.375 -6.796875 C 2.851562 -7.285156 3.425781 -7.53125 4.09375 -7.53125 C 4.625 -7.53125 5.097656 -7.363281 5.515625 -7.03125 C 6.628906 -6.101562 7.71875 -5.429688 8.78125 -5.015625 C 9.84375 -4.597656 11.097656 -4.390625 12.546875 -4.390625 C 14.109375 -4.390625 15.453125 -4.738281 16.578125 -5.4375 C 17.710938 -6.132812 18.28125 -7 18.28125 -8.03125 C 18.28125 -9.28125 17.722656 -10.257812 16.609375 -10.96875 C 15.492188 -11.6875 13.722656 -12.226562 11.296875 -12.59375 C 5.191406 -13.476562 2.140625 -16.320312 2.140625 -21.125 C 2.140625 -22.882812 2.597656 -24.410156 3.515625 -25.703125 C 4.429688 -26.992188 5.679688 -27.984375 7.265625 -28.671875 C 8.859375 -29.359375 10.632812 -29.703125 12.59375 -29.703125 C 14.34375 -29.703125 15.992188 -29.4375 17.546875 -28.90625 C 19.097656 -28.375 20.390625 -27.675781 21.421875 -26.8125 C 22.222656 -26.164062 22.625 -25.425781 22.625 -24.59375 C 22.625 -23.957031 22.382812 -23.394531 21.90625 -22.90625 C 21.4375 -22.414062 20.882812 -22.171875 20.25 -22.171875 C 19.832031 -22.171875 19.453125 -22.296875 19.109375 -22.546875 C 18.390625 -23.128906 17.378906 -23.664062 16.078125 -24.15625 C 14.785156 -24.644531 13.625 -24.890625 12.59375 -24.890625 C 10.832031 -24.890625 9.46875 -24.5625 8.5 -23.90625 C 7.539062 -23.25 7.0625 -22.390625 7.0625 -21.328125 C 7.0625 -20.128906 7.554688 -19.222656 8.546875 -18.609375 C 9.535156 -17.992188 11.09375 -17.492188 13.21875 -17.109375 C 15.613281 -16.691406 17.53125 -16.15625 18.96875 -15.5 C 20.40625 -14.84375 21.484375 -13.945312 22.203125 -12.8125 C 22.929688 -11.6875 23.296875 -10.191406 23.296875 -8.328125 C 23.296875 -6.566406 22.800781 -5.023438 21.8125 -3.703125 C 20.820312 -2.378906 19.503906 -1.359375 17.859375 -0.640625 C 16.210938 0.0664062 14.441406 0.421875 12.546875 0.421875 Z M 12.546875 0.421875 "/></g></g></g></svg>