<svg width="24" height="20" fill="none" xmlns="http://www.w3.org/2000/svg"><path d="M24 2.308c-.903.394-1.858.656-2.835.777A4.893 4.893 0 0023.33.365a9.833 9.833 0 01-3.12 1.192 4.92 4.92 0 00-8.512 3.364c0 .39.034.765.114 1.122A13.926 13.926 0 011.671.897a4.928 4.928 0 001.512 6.576A4.86 4.86 0 01.96 6.867v.054a4.943 4.943 0 003.942 4.834 4.88 4.88 0 01-1.29.162 4.347 4.347 0 01-.932-.084 4.967 4.967 0 004.598 3.428 9.885 9.885 0 01-6.1 2.098A9.31 9.31 0 010 17.292 13.851 13.851 0 007.548 19.5c9.054 0 14.004-7.5 14.004-14.001 0-.218-.008-.428-.018-.636A9.817 9.817 0 0024 2.308z" fill="#fff"/></svg>